<?xml version="1.0" encoding="utf-8"?>
<!-- Generator: Adobe Illustrator 22.0.1, SVG Export Plug-In . SVG Version: 6.00 Build 0)  -->
<svg version="1.1" id="SvgjsSvg1001" xmlns:svgjs="http://svgjs.com/svgjs"
	 xmlns="http://www.w3.org/2000/svg" xmlns:xlink="http://www.w3.org/1999/xlink" x="0px" y="0px" viewBox="0 0 288 288"
	 style="enable-background:new 0 0 288 288;" xml:space="preserve">
<style type="text/css">
	.st0{fill:#FFFFFF;}
</style>
<g id="SvgjsG1008" transform="matrix(1,0,0,1,0,0)">
	<path class="st0" d="M182.9,76.7L182.9,76.7c-5.9,0-10.7,4.8-10.7,10.7c0,5.9,4.8,10.7,10.7,10.7c5.9,0,10.7-4.8,10.7-10.7
		C193.6,81.5,188.8,76.7,182.9,76.7L182.9,76.7z M224,98.3c-0.2-7.4-1.6-14.8-4.1-21.7c-2.3-6-5.8-11.4-10.4-15.8
		c-4.4-4.6-9.8-8.1-15.8-10.3c-7-2.6-14.3-4-21.7-4.2c-9.5-0.5-12.5-0.5-36.8-0.5s-27.4,0-36.8,0.5c-7.4,0.2-14.8,1.6-21.7,4.2
		c-6,2.2-11.4,5.7-15.8,10.3c-4.6,4.4-8.1,9.8-10.3,15.8c-2.6,7-4,14.3-4.2,21.7c-0.5,9.5-0.5,12.5-0.5,36.8s0,27.4,0.5,36.8
		c0.2,7.4,1.6,14.8,4.2,21.7c2.2,6,5.7,11.4,10.3,15.8c4.4,4.6,9.9,8.1,15.8,10.3c7,2.6,14.3,4,21.7,4.2c9.5,0.5,12.5,0.5,36.8,0.5
		s27.4,0,36.8-0.5c7.4-0.2,14.8-1.6,21.7-4.2c6-2.2,11.4-5.7,15.8-10.3c4.6-4.4,8.1-9.9,10.4-15.8c2.6-7,3.9-14.3,4.1-21.7
		c0-9.5,0.5-12.5,0.5-36.8S224.6,107.8,224,98.3z M207.9,170.9c-0.1,5.7-1.1,11.3-3,16.6c-1.4,3.9-3.7,7.4-6.7,10.3
		c-2.9,3-6.4,5.2-10.3,6.7c-5.3,1.9-11,3-16.6,3c-8.9,0.4-12.3,0.5-35.8,0.5s-26.8,0-35.8-0.5c-5.9,0.1-11.8-0.8-17.3-2.7
		c-3.7-1.5-7.1-3.8-9.8-6.7c-3-2.9-5.2-6.4-6.6-10.3c-2.2-5.4-3.4-11.2-3.6-17c0-8.9-0.5-12.3-0.5-35.8s0-26.8,0.5-35.8
		c0-5.8,1.1-11.6,3.1-17c1.6-3.8,4-7.1,7.1-9.8c2.7-3.1,6.1-5.5,9.8-7.2c5.5-2,11.2-3,17-3c8.9,0,12.3-0.5,35.8-0.5s26.8,0,35.8,0.5
		c5.7,0.1,11.3,1.1,16.6,3c4.1,1.5,7.7,4,10.6,7.2c2.9,2.7,5.2,6.1,6.7,9.8c2,5.4,3,11.2,3,17c0.4,8.9,0.5,12.3,0.5,35.8
		S208.4,162,207.9,170.9z M135.2,89.3c-25.3,0-45.8,20.6-45.8,46s20.6,45.8,46,45.8c25.3,0,45.8-20.6,45.8-45.9
		c0-25.3-20.4-45.8-45.7-45.9C135.3,89.3,135.2,89.3,135.2,89.3z M135.2,164.9c-16.4,0-29.8-13.3-29.8-29.8s13.3-29.8,29.8-29.8
		s29.8,13.3,29.8,29.8l0,0C164.9,151.6,151.6,164.9,135.2,164.9z"/>
</g>
</svg>
