<?xml version="1.0" encoding="utf-8"?>
<!-- Generator: Adobe Illustrator 22.0.1, SVG Export Plug-In . SVG Version: 6.00 Build 0)  -->
<svg version="1.1" id="Capa_1" xmlns="http://www.w3.org/2000/svg" xmlns:xlink="http://www.w3.org/1999/xlink" x="0px" y="0px"
	 viewBox="0 0 35 35" style="enable-background:new 0 0 35 35;" xml:space="preserve">
<style type="text/css">
	.st0{fill:#FFFFFF;}
</style>
<title>in_logo</title>
<g id="Redes_sociales">
	<path class="st0" d="M17.7,14.2c0.3-0.3,0.5-0.6,0.7-0.8c0.8-0.8,1.8-1.2,2.9-1.1c0.6,0,1.2,0.1,1.8,0.2c1.3,0.4,2.3,1.4,2.5,2.7
		c0.3,1,0.4,2,0.3,3.1c0,2.2,0,4.4,0,6.5c0,0.2-0.1,0.3-0.3,0.3c-1.1,0-2.3,0-3.4,0c-0.2,0-0.2-0.1-0.2-0.2c0-2.1,0-4.1,0-6.2
		c0-0.5,0-1-0.2-1.5c-0.2-0.9-1-1.5-1.9-1.4c-1.2-0.1-2.1,0.8-2.2,2c0,0,0,0.1,0,0.1c0,0.3,0,0.7,0,1v6c0,0.2,0,0.3-0.2,0.3
		c-1.1,0-2.3,0-3.4,0c-0.2,0-0.2,0-0.2-0.2c0-4,0-7.9,0-12c0-0.2,0.1-0.2,0.2-0.2h3.2c0.2,0,0.2,0.1,0.2,0.2
		C17.7,13.3,17.7,13.8,17.7,14.2z"/>
	<path class="st0" d="M11.6,18.8c0,2,0,3.9,0,5.9c0,0.2-0.1,0.3-0.3,0.3c-1.1,0-2.3,0-3.4,0c-0.2,0-0.2,0-0.2-0.2c0-4,0-8,0-12
		c0-0.2,0-0.2,0.2-0.2h3.4c0.2,0,0.2,0.1,0.2,0.3C11.6,14.8,11.6,16.8,11.6,18.8z"/>
	<path class="st0" d="M11.9,8.6c0,1.3-1,2.3-2.3,2.3s-2.3-1-2.3-2.3s1-2.3,2.3-2.3S11.9,7.3,11.9,8.6z"/>
</g>
</svg>
