<svg xmlns="http://www.w3.org/2000/svg" viewBox="0 0 90 90"><defs><style>.cls-1{fill:#fff;fill-rule:evenodd;}</style></defs><title>logo_wsp</title><g id="Seccion"><circle cx="45" cy="45" r="45"/><g id="WA_Logo" data-name="WA Logo"><path class="cls-1" d="M66.65,23.91A28.55,28.55,0,0,0,21.72,58.34l-4,14.79,15.13-4a28.53,28.53,0,0,0,13.64,3.47h0a28.55,28.55,0,0,0,20.2-48.72Zm-20.2,43.9h0a23.67,23.67,0,0,1-12.07-3.3L33.5,64l-9,2.36,2.4-8.75-.57-.9a23.73,23.73,0,1,1,20.1,11.11Zm13-17.76c-.72-.36-4.22-2.08-4.88-2.32s-1.13-.36-1.6.36-1.84,2.32-2.26,2.79-.83.54-1.54.18a19.4,19.4,0,0,1-5.74-3.54,21.49,21.49,0,0,1-4-4.94c-.41-.71,0-1.1.31-1.45s.72-.84,1.07-1.25a5,5,0,0,0,.72-1.19,1.33,1.33,0,0,0-.06-1.25c-.18-.36-1.61-3.87-2.2-5.3s-1.17-1.2-1.61-1.22-.89,0-1.36,0a2.61,2.61,0,0,0-1.91.89,8,8,0,0,0-2.49,6c0,3.51,2.55,6.9,2.91,7.37s5,7.68,12.19,10.77a42.92,42.92,0,0,0,4.06,1.5,9.72,9.72,0,0,0,4.49.28c1.37-.2,4.22-1.72,4.82-3.39a6.09,6.09,0,0,0,.42-3.39C60.66,50.59,60.18,50.41,59.47,50.05Z"/></g></g></svg>