<svg xmlns="http://www.w3.org/2000/svg" viewBox="0 0 90 90"><defs><style>.cls-1{fill:#fff;}.cls-1,.cls-2{fill-rule:evenodd;}</style></defs><title>logo_ms</title><g id="Seccion"><circle cx="45" cy="45" r="45"/><g id="logo"><path id="bubble" class="cls-1" d="M45,17.69C29.62,17.69,17.69,29,17.69,44.18a25.92,25.92,0,0,0,8.58,19.59A2.21,2.21,0,0,1,27,65.33l.15,4.86a2.19,2.19,0,0,0,3.07,1.93l5.42-2.39a2.16,2.16,0,0,1,1.46-.11,30,30,0,0,0,7.9,1c15.38,0,27.31-11.27,27.31-26.49S60.38,17.69,45,17.69Z"/><path id="bolt" class="cls-2" d="M28.6,51.93l8-12.73a4.1,4.1,0,0,1,5.93-1.09l6.38,4.78a1.64,1.64,0,0,0,2,0l8.62-6.54a1.29,1.29,0,0,1,1.88,1.72l-8,12.73a4.1,4.1,0,0,1-5.93,1.09l-6.38-4.78a1.64,1.64,0,0,0-2,0l-8.62,6.54A1.29,1.29,0,0,1,28.6,51.93Z"/></g></g></svg>